<svg version="1.1" id="Layer_1" xmlns="http://www.w3.org/2000/svg" xmlns:xlink="http://www.w3.org/1999/xlink" x="0px" y="0px"
	 viewBox="92 79 192 192" preserveAspectRatio="xMidYMid meet" xml:space="preserve">
<path fill="#1d1d1f" opacity="1.000000" stroke="none"
	d="
M229.383255,96.473152
	C267.775787,117.981674 270.006866,177.682373 231.191162,202.164841
	C225.181030,205.955658 225.365524,206.108109 229.898804,211.592712
	C241.036667,225.067902 252.119034,238.588974 263.215515,252.098328
	C265.237396,254.559860 267.588654,257.071289 265.805023,260.554291
	C264.122864,263.839081 260.807465,263.323456 257.830475,263.327820
	C247.498322,263.342987 237.165039,263.254333 226.834549,263.387848
	C223.285538,263.433746 221.878296,262.210205 221.633102,258.513824
	C219.907150,232.494110 210.945206,209.628372 191.787781,191.305298
	C187.761887,187.454742 187.963806,186.070465 192.702621,182.280151
	C207.013504,170.833679 209.328491,153.118225 198.143127,140.646622
	C188.888184,130.327393 174.958206,127.989716 163.757309,134.876114
	C151.711075,142.282211 146.811829,156.178238 151.711914,169.092163
	C152.124878,170.180511 152.703552,171.205246 153.133224,172.288132
	C154.314606,175.265457 153.695312,177.312668 150.108963,177.326675
	C137.777481,177.374878 125.443718,177.464310 113.114975,177.271927
	C108.280754,177.196472 106.695625,173.804092 106.698608,169.419327
	C106.704834,160.253693 106.696106,151.088058 106.694649,141.922424
	C106.692284,127.090744 106.665962,112.259010 106.699326,97.427406
	C106.716309,89.874184 108.959534,87.668411 116.587280,87.662880
	C142.251068,87.644295 167.914948,87.687630 193.578659,87.643364
	C206.131088,87.621712 218.023239,90.172630 229.383255,96.473152
z"/>
<path fill="#0071e3" opacity="1.000000" stroke="none"
	d="
M195.274139,234.924988
	C197.980438,242.526459 199.848175,249.910599 200.356827,257.607574
	C200.619858,261.587982 199.009628,263.357758 194.868607,263.344177
	C168.393631,263.257385 141.918137,263.339630 115.443062,263.269745
	C109.421127,263.253845 106.731186,260.381775 106.719307,254.239288
	C106.681946,234.924103 106.689919,215.608673 106.739685,196.293518
	C106.755791,190.043549 108.149933,188.573029 114.438332,188.718796
	C139.739929,189.305328 163.270752,194.816742 181.864761,213.605042
	C187.811417,219.613815 191.873199,226.840714 195.274139,234.924988
z"/>
</svg>
